<svg width="170" height="170" viewBox="0 0 170 170" fill="none" xmlns="http://www.w3.org/2000/svg">
<path d="M70.8704 113.333H35.4537V148.75M99.2037 56.6667H134.62V21.25M32.5 63.7741C36.4715 53.9443 43.121 45.4257 51.6926 39.1866C60.2642 32.9475 70.4231 29.2366 80.9978 28.4786C91.5725 27.7206 102.141 29.9441 111.515 34.8968C120.889 39.8496 128.679 47.3346 134.012 56.4975M137.578 106.229C133.606 116.059 126.957 124.578 118.385 130.817C109.814 137.056 99.6653 140.762 89.0906 141.52C78.5159 142.278 67.9383 140.055 58.5645 135.102C49.1906 130.149 41.3954 122.666 36.0624 113.503" stroke="#F6F6F6" stroke-width="12" stroke-linecap="round" stroke-linejoin="round"/>
</svg>
