<svg width="170" height="170" viewBox="0 0 170 170" fill="none" xmlns="http://www.w3.org/2000/svg">
<path d="M63.7396 28.3281L63.7396 141.661M63.7396 28.3281H118.988C126.922 28.3281 130.892 28.3281 133.923 29.8722C136.588 31.2304 138.754 33.3961 140.112 36.0617C141.656 39.0921 141.656 43.0621 141.656 50.9962V118.996C141.656 126.93 141.656 130.892 140.112 133.922C138.754 136.588 136.588 138.761 133.923 140.119C130.895 141.661 126.93 141.661 119.011 141.661L63.7396 141.661M63.7396 28.3281H50.9882C43.0541 28.3281 39.0926 28.3281 36.0622 29.8722C33.3966 31.2304 31.2237 33.3961 29.8655 36.0617C28.3229 39.0891 28.3229 43.0543 28.3229 50.9729L28.3229 119.016C28.3229 126.935 28.3229 130.895 29.8655 133.922C31.2237 136.588 33.3966 138.761 36.0622 140.119C39.0897 141.661 43.0492 141.661 50.9677 141.661H63.7396" stroke="#F6F6F6" stroke-width="10" stroke-linecap="round" stroke-linejoin="round"/>
</svg>
