<svg width="170" height="170" viewBox="0 0 170 170" fill="none" xmlns="http://www.w3.org/2000/svg">
<path d="M28.3203 56.6699H141.654M28.3203 56.6699V119.005C28.3203 126.939 28.3203 130.904 29.8644 133.934C31.2226 136.6 33.3882 138.769 36.0539 140.127C39.0813 141.67 43.0465 141.67 50.9651 141.67H119.009C126.927 141.67 130.887 141.67 133.914 140.127C136.58 138.769 138.753 136.6 140.111 133.934C141.654 130.907 141.654 126.947 141.654 119.029V56.6699M28.3203 56.6699V51.0046C28.3203 43.0706 28.3203 39.1006 29.8644 36.0702C31.2226 33.4045 33.3882 31.2389 36.0539 29.8807C39.0843 28.3366 43.0543 28.3366 50.9884 28.3366H56.6536M141.654 56.6699V50.9814C141.654 43.0628 141.654 39.0976 140.111 36.0702C138.753 33.4045 136.58 31.2389 133.914 29.8807C130.884 28.3366 126.922 28.3366 118.988 28.3366H113.32M56.6536 28.3366H113.32M56.6536 28.3366V14.1699M113.32 28.3366V14.1699M106.237 85.0033L77.9036 113.337L63.737 99.1699" stroke="#55D186" stroke-width="12" stroke-linecap="round" stroke-linejoin="round"/>
</svg>
