<svg width="170" height="170" viewBox="0 0 170 170" fill="none" xmlns="http://www.w3.org/2000/svg">
<path d="M28.3203 56.6732V119.007C28.3203 126.941 28.3203 130.905 29.8644 133.935C31.2226 136.601 33.3882 138.772 36.0539 140.131C39.0813 141.673 43.0465 141.673 50.9651 141.673H119.009C126.927 141.673 130.887 141.673 133.914 140.131C136.58 138.772 138.753 136.601 140.111 133.935C141.654 130.908 141.654 126.947 141.654 119.028V56.6732M28.3203 56.6732H141.654M28.3203 56.6732L37.9903 39.7503C40.3634 35.5974 41.5497 33.5214 43.2183 32.0095C44.6959 30.6708 46.4436 29.6577 48.339 29.0391C50.4813 28.3398 52.8728 28.3398 57.6636 28.3398H112.308C117.099 28.3398 119.499 28.3398 121.641 29.0391C123.537 29.6577 125.276 30.6708 126.754 32.0095C128.424 33.5226 129.613 35.6008 131.99 39.7603L141.654 56.6732M84.987 77.9232V120.423M84.987 120.423L106.237 106.257M84.987 120.423L63.737 106.257" stroke="#F6F6F6" stroke-width="12" stroke-linecap="round" stroke-linejoin="round"/>
</svg>
