<svg width="170" height="170" viewBox="0 0 170 170" fill="none" xmlns="http://www.w3.org/2000/svg">
<path d="M85 38.9583V56.6667M85 38.9583C85 29.1783 92.9283 21.25 102.708 21.25C112.488 21.25 120.417 29.1783 120.417 38.9583C120.417 48.7384 112.488 56.6667 102.708 56.6667M85 38.9583C85 29.1783 77.0717 21.25 67.2917 21.25C57.5116 21.25 49.5833 29.1783 49.5833 38.9583C49.5833 48.7384 57.5116 56.6667 67.2917 56.6667M85 56.6667H102.708M85 56.6667H67.2917M85 56.6667V99.1667M102.708 56.6667H126.085C134.019 56.6667 137.98 56.6667 141.011 58.2107C143.676 59.5689 145.849 61.7346 147.207 64.4002C148.75 67.4277 148.75 71.3929 148.75 79.3114V99.1667M67.2917 56.6667H43.9181C35.984 56.6667 32.014 56.6667 28.9836 58.2107C26.3179 59.5689 24.1523 61.7346 22.7941 64.4002C21.25 67.4306 21.25 71.4006 21.25 79.3347V99.1667M21.25 99.1667V119.001C21.25 126.935 21.25 130.9 22.7941 133.931C24.1523 136.596 26.3179 138.766 28.9836 140.124C32.011 141.667 35.9762 141.667 43.8948 141.667H85M21.25 99.1667H85M85 99.1667V141.667M85 99.1667H148.75M85 141.667H126.105C134.024 141.667 137.983 141.667 141.011 140.124C143.676 138.766 145.849 136.596 147.207 133.931C148.75 130.903 148.75 126.944 148.75 119.025V99.1667" stroke="#55D186" stroke-width="12" stroke-linecap="round" stroke-linejoin="round"/>
</svg>
