<svg width="180" height="180" viewBox="0 0 180 180" fill="none" xmlns="http://www.w3.org/2000/svg">
<path d="M30 85.9002V126.01C30 134.411 30 138.614 31.6349 141.823C33.073 144.645 35.366 146.938 38.1885 148.376C41.394 150.009 45.5925 150.009 53.9768 150.009H126.023C134.408 150.009 138.6 150.009 141.805 148.376C144.628 146.938 146.929 144.645 148.367 141.823C150 138.617 150 134.42 150 126.036V85.9002C150 81.8927 149.997 79.8878 149.509 78.023C149.077 76.3704 148.369 74.8066 147.409 73.3934C146.327 71.7986 144.822 70.4762 141.806 67.8372L105.806 36.3372C100.206 31.4376 97.4063 28.989 94.2554 28.0572C91.4789 27.2361 88.5196 27.2361 85.7432 28.0572C82.5946 28.9883 79.7989 31.4346 74.2077 36.3268L38.1958 67.8372C35.1798 70.4762 33.6753 71.7986 32.5928 73.3934C31.6334 74.8066 30.9191 76.3704 30.4873 78.023C30 79.8878 30 81.8927 30 85.9002Z" stroke="#F6F6F6" stroke-width="12" stroke-linecap="round" stroke-linejoin="round"/>
</svg>
