<svg width="170" height="170" viewBox="0 0 170 170" fill="none" xmlns="http://www.w3.org/2000/svg">
<path d="M63.7435 84.987L84.9935 106.237M84.9935 106.237L106.243 84.987M84.9935 106.237V28.3203M118.649 63.737H118.992C126.926 63.737 130.896 63.737 133.927 65.2811C136.592 66.6393 138.758 68.8049 140.116 71.4705C141.66 74.501 141.66 78.471 141.66 86.405V118.988C141.66 126.922 141.66 130.884 140.116 133.914C138.758 136.58 136.592 138.753 133.927 140.111C130.899 141.654 126.934 141.654 119.015 141.654H50.9681C43.0496 141.654 39.0901 141.654 36.0626 140.111C33.397 138.753 31.2276 136.58 29.8694 133.914C28.3268 130.887 28.3268 126.927 28.3268 119.009V86.3818C28.3268 78.4632 28.3268 74.498 29.8694 71.4705C31.2276 68.8049 33.3991 66.6393 36.0647 65.2811C39.0951 63.737 43.0594 63.737 50.9935 63.737H51.3476" stroke="#F6F6F6" stroke-width="12" stroke-linecap="round" stroke-linejoin="round"/>
</svg>
