<svg width="170" height="170" viewBox="0 0 170 170" fill="none" xmlns="http://www.w3.org/2000/svg">
<path d="M25.4047 97.5999C38.009 110.13 59.9907 127.499 84.9995 127.499C110.008 127.499 131.986 110.13 144.59 97.5999C147.914 94.2952 149.582 92.6372 150.64 89.3925C151.396 87.0774 151.396 82.9227 150.64 80.6076C149.582 77.3628 147.915 75.7046 144.59 72.3995C131.986 59.8689 110.008 42.5 84.9995 42.5C59.9907 42.5 38.009 59.8689 25.4047 72.3995C22.0779 75.7068 20.4144 77.3617 19.3555 80.6076C18.6003 82.9227 18.6003 87.0774 19.3555 89.3925C20.4144 92.6385 22.0779 94.2926 25.4047 97.5999Z" stroke="#F6F6F6" stroke-width="12" stroke-linecap="round" stroke-linejoin="round"/>
<path d="M70.8315 85C70.8315 92.824 77.1741 99.1667 84.9982 99.1667C92.8222 99.1667 99.1648 92.824 99.1648 85C99.1648 77.176 92.8222 70.8333 84.9982 70.8333C77.1741 70.8333 70.8315 77.176 70.8315 85Z" stroke="#F6F6F6" stroke-width="12" stroke-linecap="round" stroke-linejoin="round"/>
</svg>
