<svg width="170" height="170" viewBox="0 0 170 170" fill="none" xmlns="http://www.w3.org/2000/svg">
<path d="M16.532 73.2194C14.3131 71.1675 15.5184 67.458 18.5196 67.1021L61.0449 62.0582C62.2681 61.9131 63.3305 61.145 63.8464 60.0265L81.783 21.1405C83.0489 18.3962 86.9503 18.3957 88.2162 21.14L106.153 60.0257C106.669 61.1442 107.724 61.9144 108.947 62.0594L151.475 67.1021C154.476 67.458 155.678 71.1686 153.459 73.2205L122.023 102.297C121.118 103.134 120.716 104.379 120.956 105.587L129.299 147.589C129.888 150.553 126.733 152.85 124.096 151.373L86.7291 130.452C85.6543 129.85 84.3486 129.853 83.2737 130.454L45.9029 151.368C43.2657 152.844 40.1052 150.553 40.6942 147.588L49.0387 105.589C49.2787 104.381 48.8771 103.133 47.9728 102.297L16.532 73.2194Z" stroke="#55D186" stroke-width="12" stroke-linecap="round" stroke-linejoin="round"/>
</svg>
