<svg width="200" height="200" viewBox="0 0 200 200" fill="none" xmlns="http://www.w3.org/2000/svg">
<path d="M141.667 166.67C141.667 152.863 123.012 141.67 100 141.67C76.9881 141.67 58.3333 152.863 58.3333 166.67M175 141.673C175 131.421 164.716 122.611 150 118.753M25 141.673C25 131.421 35.2841 122.611 50 118.753M150 85.3041C155.115 80.7265 158.333 74.0741 158.333 66.6699C158.333 52.8628 147.14 41.6699 133.333 41.6699C126.93 41.6699 121.09 44.077 116.667 48.0357M50 85.3041C44.8854 80.7265 41.6667 74.0741 41.6667 66.6699C41.6667 52.8628 52.8595 41.6699 66.6667 41.6699C73.0696 41.6699 78.9104 44.077 83.3333 48.0357M100 116.67C86.1929 116.67 75 105.477 75 91.6699C75 77.8628 86.1929 66.6699 100 66.6699C113.807 66.6699 125 77.8628 125 91.6699C125 105.477 113.807 116.67 100 116.67Z" stroke="#F6F6F6" stroke-width="12" stroke-linecap="round" stroke-linejoin="round"/>
</svg>
