<svg width="170" height="170" viewBox="0 0 170 170" fill="none" xmlns="http://www.w3.org/2000/svg">
<path d="M106.25 70.832L77.9163 99.1653L63.7497 84.9986M93.8262 24.4998L102.475 31.87C104.654 33.7268 107.359 34.8493 110.213 35.0771L121.539 35.9798C128.198 36.5112 133.488 41.7973 134.019 48.4566L134.92 59.785C135.148 62.6387 136.274 65.3479 138.131 67.5268L145.498 76.1729C149.831 81.2575 149.832 88.7367 145.499 93.8213L138.132 102.469C136.275 104.648 135.15 107.358 134.922 110.212L134.016 121.538C133.484 128.197 128.203 133.487 121.544 134.018L110.213 134.922C107.36 135.15 104.652 136.27 102.473 138.126L93.8262 145.497C88.7416 149.83 81.2577 149.831 76.1732 145.498L67.5265 138.127C65.3477 136.27 62.6397 135.149 59.786 134.921L48.4555 134.018C41.7962 133.487 36.515 128.199 35.9835 121.539L35.0774 110.212C34.8497 107.359 33.7246 104.651 31.8677 102.472L24.5008 93.8217C20.1678 88.7371 20.1657 81.2602 24.4988 76.1756L31.8723 67.5255C33.7292 65.3466 34.8434 62.6387 35.0712 59.785L35.9773 48.4579C36.5087 41.7986 41.8052 36.5105 48.4645 35.9791L59.7826 35.0764C62.6362 34.8486 65.3455 33.727 67.5244 31.8702L76.1739 24.4998C81.2585 20.1667 88.7416 20.1667 93.8262 24.4998Z" stroke="#F6F6F6" stroke-width="12" stroke-linecap="round" stroke-linejoin="round"/>
</svg>
